<?xml version="1.0" encoding="UTF-8"?>
<svg width="700pt" height="700pt" version="1.1" viewBox="0 0 700 700" xmlns="http://www.w3.org/2000/svg">
 <path d="m350 35c-135.09 0-245 109.91-245 245s109.91 245 245 245 245-109.91 245-245-109.91-245-245-245zm118.08 169.13-140 157.5c-3.2031 3.5977-7.75 5.8672-12.57 5.8672h-0.51172c-4.6328 0-9.0938-1.8359-12.375-5.1289l-70-70c-6.8359-6.8359-6.8359-17.91 0-24.746s17.91-6.8359 24.746 0l56.875 56.875 127.67-143.63c6.418-7.2188 17.473-7.8867 24.711-1.4531 7.2266 6.4297 7.875 17.488 1.457 24.715z"/>
</svg>
