<?xml version="1.0" encoding="UTF-8"?>
<svg width="700pt" height="700pt" version="1.1" viewBox="0 0 700 700" xmlns="http://www.w3.org/2000/svg" >
 <g>
  <path d="m349.95 144.85c-36.773 0-70.465 14.723-94.781 38.805l-0.83984 0.76953c-24.523 24.43-39.457 58.309-39.457 95.41 0 37.426 14.934 71.238 39.457 95.738 24.523 24.406 58.426 39.551 95.621 39.551 37.008 0 70.465-14.816 94.688-38.805l0.95703-0.74609c24.406-24.523 39.551-58.309 39.551-95.738 0-37.102-15.145-71.004-39.551-95.41-24.523-24.641-58.426-39.574-95.645-39.574zm74.316 209.39-0.65234 0.62891c-18.969 18.668-44.988 30.285-73.664 30.285-29.004 0-55.324-11.945-74.41-30.918-18.875-18.969-30.824-45.195-30.824-74.434 0-28.887 11.922-55.23 30.824-74.199l0.72266-0.71875c18.992-18.434 44.895-30.078 73.664-30.078 29.098 0 55.348 11.738 74.316 30.707v0.11719c19.18 18.969 30.918 45.312 30.918 74.199 0.023438 29.215-11.715 55.441-30.895 74.41z"/>
  <path d="m406.77 223.11c-5.8555-5.8555-15.352-5.8555-21.328 0l-35.512 35.605-35.512-35.605c-5.9492-5.8555-15.352-5.8555-21.328 0-5.7383 5.9727-5.7383 15.469 0 21.328l35.512 35.398-35.512 35.605c-5.7383 5.9727-5.7383 15.469 0 21.328 5.9727 5.8555 15.375 5.8555 21.328 0l35.512-35.605 35.512 35.605c5.9727 5.8555 15.469 5.8555 21.328 0 5.7617-5.8555 5.7617-15.352 0-21.328l-35.605-35.605 35.605-35.398c5.7656-5.8594 5.7656-15.566 0-21.328z"/>
 </g>
</svg>
